<mxfile host="app.diagrams.net" agent="Mozilla/5.0 (Macintosh; Intel Mac OS X 10_15_7) AppleWebKit/537.36 (KHTML, like Gecko) Chrome/131.0.0.0 Safari/537.36" version="26.0.4">
  <diagram name="Page-1" id="c7558073-3199-34d8-9f00-42111426c3f3">
    <mxGraphModel dx="749" dy="372" grid="1" gridSize="10" guides="1" tooltips="1" connect="1" arrows="1" fold="1" page="1" pageScale="1" pageWidth="826" pageHeight="1169" background="none" math="0" shadow="0">
      <root>
        <mxCell id="0" />
        <mxCell id="1" parent="0" />
        <mxCell id="bXyqkLGYAs-9JJmOrRxe-145" style="edgeStyle=orthogonalEdgeStyle;rounded=0;orthogonalLoop=1;jettySize=auto;html=1;" edge="1" parent="1" source="bXyqkLGYAs-9JJmOrRxe-96" target="bXyqkLGYAs-9JJmOrRxe-128">
          <mxGeometry relative="1" as="geometry" />
        </mxCell>
        <mxCell id="bXyqkLGYAs-9JJmOrRxe-96" value="/start" style="rounded=1;whiteSpace=wrap;html=1;fillColor=#d5e8d4;strokeColor=#82b366;arcSize=20;" vertex="1" parent="1">
          <mxGeometry x="320" y="110" width="80" height="40" as="geometry" />
        </mxCell>
        <mxCell id="bXyqkLGYAs-9JJmOrRxe-120" style="edgeStyle=orthogonalEdgeStyle;rounded=0;orthogonalLoop=1;jettySize=auto;html=1;exitX=0.5;exitY=1;exitDx=0;exitDy=0;entryX=0.5;entryY=0;entryDx=0;entryDy=0;" edge="1" parent="1" source="bXyqkLGYAs-9JJmOrRxe-97" target="bXyqkLGYAs-9JJmOrRxe-98">
          <mxGeometry relative="1" as="geometry" />
        </mxCell>
        <mxCell id="bXyqkLGYAs-9JJmOrRxe-139" style="edgeStyle=orthogonalEdgeStyle;rounded=0;orthogonalLoop=1;jettySize=auto;html=1;exitX=1;exitY=0.5;exitDx=0;exitDy=0;entryX=0;entryY=0.5;entryDx=0;entryDy=0;" edge="1" parent="1" source="bXyqkLGYAs-9JJmOrRxe-97" target="bXyqkLGYAs-9JJmOrRxe-124">
          <mxGeometry relative="1" as="geometry" />
        </mxCell>
        <mxCell id="bXyqkLGYAs-9JJmOrRxe-97" value="&amp;nbsp;Добавьте 3 предмета" style="rounded=1;whiteSpace=wrap;html=1;" vertex="1" parent="1">
          <mxGeometry x="265" y="190" width="190" height="30" as="geometry" />
        </mxCell>
        <mxCell id="bXyqkLGYAs-9JJmOrRxe-121" style="edgeStyle=orthogonalEdgeStyle;rounded=0;orthogonalLoop=1;jettySize=auto;html=1;entryX=0.5;entryY=0;entryDx=0;entryDy=0;" edge="1" parent="1" source="bXyqkLGYAs-9JJmOrRxe-98">
          <mxGeometry relative="1" as="geometry">
            <mxPoint x="360" y="300" as="targetPoint" />
          </mxGeometry>
        </mxCell>
        <mxCell id="bXyqkLGYAs-9JJmOrRxe-140" style="edgeStyle=orthogonalEdgeStyle;rounded=0;orthogonalLoop=1;jettySize=auto;html=1;exitX=1;exitY=0.5;exitDx=0;exitDy=0;entryX=0;entryY=0.5;entryDx=0;entryDy=0;" edge="1" parent="1" source="bXyqkLGYAs-9JJmOrRxe-98" target="bXyqkLGYAs-9JJmOrRxe-126">
          <mxGeometry relative="1" as="geometry" />
        </mxCell>
        <mxCell id="bXyqkLGYAs-9JJmOrRxe-98" value="Добавьте 3 животных" style="rounded=1;whiteSpace=wrap;html=1;" vertex="1" parent="1">
          <mxGeometry x="265" y="240" width="190" height="30" as="geometry" />
        </mxCell>
        <mxCell id="bXyqkLGYAs-9JJmOrRxe-118" style="edgeStyle=orthogonalEdgeStyle;rounded=0;orthogonalLoop=1;jettySize=auto;html=1;exitX=0.5;exitY=1;exitDx=0;exitDy=0;entryX=0.501;entryY=-0.122;entryDx=0;entryDy=0;entryPerimeter=0;" edge="1" parent="1" source="bXyqkLGYAs-9JJmOrRxe-96" target="bXyqkLGYAs-9JJmOrRxe-97">
          <mxGeometry relative="1" as="geometry" />
        </mxCell>
        <mxCell id="bXyqkLGYAs-9JJmOrRxe-124" value="&lt;div&gt;&lt;font&gt;save subjects&lt;/font&gt;&lt;/div&gt;" style="rounded=0;whiteSpace=wrap;html=1;" vertex="1" parent="1">
          <mxGeometry x="520" y="195" width="100" height="20" as="geometry" />
        </mxCell>
        <mxCell id="bXyqkLGYAs-9JJmOrRxe-126" value="&lt;div&gt;save animals&lt;/div&gt;" style="rounded=0;whiteSpace=wrap;html=1;verticalAlign=middle;" vertex="1" parent="1">
          <mxGeometry x="520" y="245" width="100" height="20" as="geometry" />
        </mxCell>
        <mxCell id="bXyqkLGYAs-9JJmOrRxe-128" value="&lt;div&gt;&lt;font&gt;save user&lt;/font&gt;&lt;/div&gt;" style="rounded=0;whiteSpace=wrap;html=1;" vertex="1" parent="1">
          <mxGeometry x="520" y="120" width="100" height="20" as="geometry" />
        </mxCell>
        <mxCell id="bXyqkLGYAs-9JJmOrRxe-137" value="" style="edgeStyle=orthogonalEdgeStyle;rounded=0;orthogonalLoop=1;jettySize=auto;html=1;" edge="1" parent="1" source="bXyqkLGYAs-9JJmOrRxe-132" target="bXyqkLGYAs-9JJmOrRxe-136">
          <mxGeometry relative="1" as="geometry" />
        </mxCell>
        <mxCell id="bXyqkLGYAs-9JJmOrRxe-143" style="edgeStyle=orthogonalEdgeStyle;rounded=0;orthogonalLoop=1;jettySize=auto;html=1;exitX=1;exitY=0.5;exitDx=0;exitDy=0;entryX=0;entryY=0.5;entryDx=0;entryDy=0;" edge="1" parent="1" source="bXyqkLGYAs-9JJmOrRxe-132" target="bXyqkLGYAs-9JJmOrRxe-134">
          <mxGeometry relative="1" as="geometry" />
        </mxCell>
        <mxCell id="bXyqkLGYAs-9JJmOrRxe-132" value="Показать 2 шаблона шутки" style="rounded=1;whiteSpace=wrap;html=1;" vertex="1" parent="1">
          <mxGeometry x="265" y="300" width="190" height="30" as="geometry" />
        </mxCell>
        <mxCell id="bXyqkLGYAs-9JJmOrRxe-134" value="&lt;div&gt;&lt;font&gt;fix the choice&lt;/font&gt;&lt;/div&gt;" style="rounded=0;whiteSpace=wrap;html=1;" vertex="1" parent="1">
          <mxGeometry x="520" y="305" width="100" height="20" as="geometry" />
        </mxCell>
        <mxCell id="bXyqkLGYAs-9JJmOrRxe-144" style="edgeStyle=orthogonalEdgeStyle;rounded=0;orthogonalLoop=1;jettySize=auto;html=1;exitX=1;exitY=0.5;exitDx=0;exitDy=0;entryX=0;entryY=0.5;entryDx=0;entryDy=0;" edge="1" parent="1" source="bXyqkLGYAs-9JJmOrRxe-136" target="bXyqkLGYAs-9JJmOrRxe-138">
          <mxGeometry relative="1" as="geometry" />
        </mxCell>
        <mxCell id="bXyqkLGYAs-9JJmOrRxe-150" style="edgeStyle=orthogonalEdgeStyle;rounded=0;orthogonalLoop=1;jettySize=auto;html=1;exitX=0.5;exitY=1;exitDx=0;exitDy=0;entryX=0.5;entryY=0;entryDx=0;entryDy=0;" edge="1" parent="1" source="bXyqkLGYAs-9JJmOrRxe-136" target="bXyqkLGYAs-9JJmOrRxe-146">
          <mxGeometry relative="1" as="geometry" />
        </mxCell>
        <mxCell id="bXyqkLGYAs-9JJmOrRxe-136" value="Показать шутку со вставленным словом" style="rounded=1;whiteSpace=wrap;html=1;" vertex="1" parent="1">
          <mxGeometry x="265" y="360" width="190" height="30" as="geometry" />
        </mxCell>
        <mxCell id="bXyqkLGYAs-9JJmOrRxe-138" value="save the joke" style="rounded=0;whiteSpace=wrap;html=1;" vertex="1" parent="1">
          <mxGeometry x="520" y="365" width="100" height="20" as="geometry" />
        </mxCell>
        <mxCell id="bXyqkLGYAs-9JJmOrRxe-148" style="edgeStyle=orthogonalEdgeStyle;rounded=0;orthogonalLoop=1;jettySize=auto;html=1;entryX=0;entryY=0.5;entryDx=0;entryDy=0;" edge="1" parent="1" source="bXyqkLGYAs-9JJmOrRxe-146" target="bXyqkLGYAs-9JJmOrRxe-147">
          <mxGeometry relative="1" as="geometry" />
        </mxCell>
        <mxCell id="bXyqkLGYAs-9JJmOrRxe-152" style="edgeStyle=orthogonalEdgeStyle;rounded=0;orthogonalLoop=1;jettySize=auto;html=1;exitX=0.5;exitY=1;exitDx=0;exitDy=0;entryX=0.5;entryY=0;entryDx=0;entryDy=0;" edge="1" parent="1" source="bXyqkLGYAs-9JJmOrRxe-146" target="bXyqkLGYAs-9JJmOrRxe-149">
          <mxGeometry relative="1" as="geometry" />
        </mxCell>
        <mxCell id="bXyqkLGYAs-9JJmOrRxe-146" value="Показать шутки для голосования" style="rounded=1;whiteSpace=wrap;html=1;" vertex="1" parent="1">
          <mxGeometry x="265" y="410" width="190" height="30" as="geometry" />
        </mxCell>
        <mxCell id="bXyqkLGYAs-9JJmOrRxe-147" value="&lt;div&gt;&lt;font&gt;fix the choice&lt;/font&gt;&lt;/div&gt;" style="rounded=0;whiteSpace=wrap;html=1;" vertex="1" parent="1">
          <mxGeometry x="520" y="415" width="100" height="20" as="geometry" />
        </mxCell>
        <mxCell id="bXyqkLGYAs-9JJmOrRxe-149" value="Показать победителя" style="rounded=1;whiteSpace=wrap;html=1;" vertex="1" parent="1">
          <mxGeometry x="265" y="460" width="190" height="30" as="geometry" />
        </mxCell>
      </root>
    </mxGraphModel>
  </diagram>
</mxfile>
